<svg width="480px" height="334px" viewBox="0 0 480 334" fill="none"
    xmlns="http://www.w3.org/2000/svg">
    <path d="M0 285.476H480V295.417H0V285.476Z" fill="#E0EBFC" />
    <path d="M382.176 268.02H97.822C95.614 268.02 93.822 266.239 93.822 264.044V85.8939C93.822 83.6989 95.614 81.9174 97.822 81.9174H382.176C384.384 81.9174 386.176 83.6989 386.176 85.8939V264.046C386.176 266.241 384.386 268.02 382.176 268.02ZM101.822 260.067H378.176V89.8705H101.822V260.067Z" fill="#9DF8AB" />
    <path d="M428.678 289.452C428.106 289.452 427.532 289.329 426.996 289.082L380.494 267.651C379.08 266.999 378.176 265.591 378.176 264.044V85.8939C378.176 84.9296 378.53 83.9971 379.17 83.2714L425.672 30.5839C426.77 29.3412 428.532 28.9018 430.088 29.4864C431.646 30.0689 432.678 31.5522 432.678 33.2084V285.476C432.678 286.834 431.982 288.096 430.832 288.828C430.178 289.241 429.43 289.452 428.678 289.452ZM386.176 261.505L424.678 279.248V43.7682L386.176 87.3911V261.505Z" fill="#9DF8AB" />
    <path d="M382.176 89.8704H97.8219C96.6699 89.8704 95.5739 89.3774 94.8159 88.5164L48.3159 35.829C47.2799 34.6559 47.0299 32.9877 47.6799 31.5661C48.3279 30.1445 49.7539 29.2299 51.3239 29.2299H428.682C430.252 29.2299 431.678 30.1425 432.326 31.5661C432.974 32.9877 432.724 34.6559 431.69 35.829L385.184 88.5164C384.424 89.3774 383.328 89.8704 382.176 89.8704ZM99.6339 81.9173H380.366L419.848 37.183H60.1519L99.6339 81.9173Z" fill="#9DF8AB" />
    <path d="M51.322 289.452C50.572 289.452 49.822 289.241 49.168 288.828C48.018 288.098 47.322 286.834 47.322 285.476V33.2064C47.322 31.5502 48.354 30.0689 49.912 29.4843C51.472 28.9038 53.232 29.3392 54.328 30.5839L100.828 83.2713C101.468 83.997 101.822 84.9276 101.822 85.8939V264.046C101.822 265.595 100.918 267.002 99.504 267.653L53.004 289.084C52.468 289.329 51.894 289.452 51.322 289.452V289.452ZM55.322 43.7681V279.248L93.822 261.505V87.391L55.322 43.7681Z" fill="#9DF8AB" />
    <path d="M341.53 89.8704H138.47C137.092 89.8704 135.812 89.1666 135.08 88.0054L101.874 35.318C101.102 34.0912 101.06 32.5463 101.764 31.2798C102.47 30.0152 103.808 29.2299 105.264 29.2299H374.738C376.194 29.2299 377.532 30.0152 378.238 31.2798C378.942 32.5463 378.9 34.0912 378.128 35.318L344.92 88.0054C344.188 89.1646 342.908 89.8704 341.53 89.8704ZM140.684 81.9173H339.316L367.51 37.183H112.49L140.684 81.9173Z" fill="#9DF8AB" />
    <path d="M300.918 89.8704H179.082C177.416 89.8704 175.924 88.8425 175.338 87.2936L155.414 34.6061C154.952 33.3853 155.122 32.0154 155.87 30.9437C156.618 29.87 157.846 29.2318 159.16 29.2318H320.846C322.158 29.2318 323.388 29.872 324.136 30.9437C324.884 32.0174 325.052 33.3853 324.592 34.6061L304.668 87.2936C304.076 88.8425 302.584 89.8704 300.918 89.8704V89.8704ZM181.852 81.9173H298.148L315.064 37.1829H164.934L181.852 81.9173Z" fill="#9DF8AB" />
    <path d="M260.306 89.8704H219.694C217.678 89.8704 215.976 88.3792 215.726 86.389L209.084 33.7015C208.942 32.5702 209.294 31.4309 210.054 30.5759C210.812 29.721 211.906 29.2299 213.054 29.2299H266.948C268.096 29.2299 269.188 29.721 269.948 30.5759C270.708 31.4309 271.06 32.5682 270.918 33.7015L264.276 86.389C264.024 88.3772 262.322 89.8704 260.306 89.8704ZM223.224 81.9173H256.774L262.414 37.183H217.584L223.224 81.9173Z" fill="#9DF8AB" />
    <path d="M138.414 268.02C136.206 268.02 134.414 266.239 134.414 264.044V85.8939C134.414 83.6989 136.206 81.9174 138.414 81.9174C140.622 81.9174 142.414 83.6989 142.414 85.8939V264.046C142.414 266.241 140.624 268.02 138.414 268.02Z" fill="#9DF8AB" />
    <path d="M179.004 268.02C176.796 268.02 175.004 266.239 175.004 264.044V85.8939C175.004 83.6989 176.796 81.9174 179.004 81.9174C181.212 81.9174 183.004 83.6989 183.004 85.8939V264.046C183.004 266.241 181.214 268.02 179.004 268.02Z" fill="#9DF8AB" />
    <path d="M219.81 268.02C217.602 268.02 215.81 266.239 215.81 264.044V85.8939C215.81 83.6989 217.602 81.9174 219.81 81.9174C222.018 81.9174 223.81 83.6989 223.81 85.8939V264.046C223.81 266.241 222.02 268.02 219.81 268.02Z" fill="#9DF8AB" />
    <path d="M260.402 268.02C258.194 268.02 256.402 266.239 256.402 264.044V85.8939C256.402 83.6989 258.194 81.9174 260.402 81.9174C262.61 81.9174 264.402 83.6989 264.402 85.8939V264.046C264.402 266.241 262.612 268.02 260.402 268.02Z" fill="#9DF8AB" />
    <path d="M300.994 268.02C298.786 268.02 296.994 266.239 296.994 264.044V85.8939C296.994 83.6989 298.786 81.9174 300.994 81.9174C303.202 81.9174 304.994 83.6989 304.994 85.8939V264.046C304.994 266.241 303.204 268.02 300.994 268.02Z" fill="#9DF8AB" />
    <path d="M341.584 268.02C339.376 268.02 337.584 266.239 337.584 264.044V85.8939C337.584 83.6989 339.376 81.9174 341.584 81.9174C343.792 81.9174 345.584 83.6989 345.584 85.8939V264.046C345.584 266.241 343.794 268.02 341.584 268.02Z" fill="#9DF8AB" />
    <path d="M341.584 268.02C339.376 268.02 337.584 266.239 337.584 264.044V85.8939C337.584 83.6989 339.376 81.9174 341.584 81.9174C343.792 81.9174 345.584 83.6989 345.584 85.8939V264.046C345.584 266.241 343.794 268.02 341.584 268.02Z" fill="#9DF8AB" />
    <path d="M382.176 268.02C379.968 268.02 378.176 266.239 378.176 264.044V85.8939C378.176 83.6989 379.968 81.9174 382.176 81.9174C384.384 81.9174 386.176 83.6989 386.176 85.8939V264.046C386.176 266.241 384.386 268.02 382.176 268.02Z" fill="#9DF8AB" />
    <path d="M382.176 130.223H97.822C95.614 130.223 93.822 128.441 93.822 126.246C93.822 124.051 95.614 122.27 97.822 122.27H382.176C384.384 122.27 386.176 124.051 386.176 126.246C386.176 128.441 384.384 130.223 382.176 130.223Z" fill="#9DF8AB" />
    <path d="M382.176 130.223H97.822C95.614 130.223 93.822 128.441 93.822 126.246C93.822 124.051 95.614 122.27 97.822 122.27H382.176C384.384 122.27 386.176 124.051 386.176 126.246C386.176 128.441 384.384 130.223 382.176 130.223Z" fill="#9DF8AB" />
    <path d="M382.176 170.577H97.822C95.614 170.577 93.822 168.795 93.822 166.6C93.822 164.405 95.614 162.624 97.822 162.624H382.176C384.384 162.624 386.176 164.405 386.176 166.6C386.176 168.795 384.384 170.577 382.176 170.577Z" fill="#9DF8AB" />
    <path d="M382.176 210.931H97.822C95.614 210.931 93.822 209.149 93.822 206.954C93.822 204.759 95.614 202.978 97.822 202.978H382.176C384.384 202.978 386.176 204.759 386.176 206.954C386.176 209.149 384.384 210.931 382.176 210.931Z" fill="#9DF8AB" />
    <path d="M382.176 251.283H97.822C95.614 251.283 93.822 249.502 93.822 247.307C93.822 245.111 95.614 243.33 97.822 243.33H382.176C384.384 243.33 386.176 245.111 386.176 247.307C386.176 249.502 384.384 251.283 382.176 251.283Z" fill="#9DF8AB" />
    <path d="M51.322 220.469C50.41 220.469 49.518 220.159 48.798 219.578C47.864 218.822 47.322 217.689 47.322 216.492V103.083C47.322 101.697 48.046 100.412 49.236 99.6886C50.424 98.9668 51.906 98.9112 53.146 99.5434L99.646 123.23C100.982 123.91 101.822 125.276 101.822 126.769V206.859C101.822 208.742 100.492 210.368 98.638 210.752L52.138 220.387C51.866 220.443 51.592 220.469 51.322 220.469ZM55.322 109.588V211.601L93.822 203.624V129.199L55.322 109.588Z" fill="#9DF8AB" />
    <path d="M51.322 269.583C49.722 269.583 48.212 268.623 47.596 267.052C46.792 265.006 47.808 262.702 49.866 261.903L96.366 243.847C98.422 243.05 100.742 244.058 101.546 246.104C102.35 248.15 101.334 250.454 99.276 251.253L52.776 269.309C52.298 269.496 51.806 269.583 51.322 269.583Z" fill="#9DF8AB" />
    <path d="M97.822 170.577H51.322C49.114 170.577 47.322 168.795 47.322 166.6C47.322 164.405 49.114 162.624 51.322 162.624H97.822C100.03 162.624 101.822 164.405 101.822 166.6C101.822 168.795 100.03 170.577 97.822 170.577Z" fill="#9DF8AB" />
    <path d="M428.678 220.469C428.406 220.469 428.134 220.441 427.862 220.385L381.362 210.75C379.508 210.366 378.178 208.74 378.178 206.857V126.769C378.178 125.278 379.018 123.91 380.354 123.23L426.854 99.5434C428.096 98.9112 429.576 98.9668 430.764 99.6886C431.954 100.41 432.678 101.697 432.678 103.083V216.492C432.678 217.689 432.136 218.822 431.202 219.578C430.482 220.159 429.59 220.469 428.678 220.469ZM386.178 203.624L424.678 211.601V109.588L386.178 129.199V203.624Z" fill="#9DF8AB" />
    <path d="M428.678 269.583C428.194 269.583 427.702 269.496 427.224 269.309L380.724 251.253C378.666 250.454 377.65 248.148 378.454 246.104C379.258 244.058 381.582 243.046 383.634 243.847L430.134 261.902C432.192 262.702 433.208 265.008 432.404 267.052C431.788 268.623 430.278 269.583 428.678 269.583Z" fill="#9DF8AB" />
    <path d="M428.678 170.577H382.178C379.97 170.577 378.178 168.795 378.178 166.6C378.178 164.405 379.97 162.624 382.178 162.624H428.678C430.886 162.624 432.678 164.405 432.678 166.6C432.678 168.795 430.888 170.577 428.678 170.577Z" fill="#9DF8AB" />
    <path d="M405.428 278.735C403.22 278.735 401.428 276.954 401.428 274.759V63.5258H78.572V274.759C78.572 276.954 76.78 278.735 74.572 278.735C72.364 278.735 70.572 276.954 70.572 274.759V59.5492C70.572 57.3541 72.364 55.5726 74.572 55.5726H405.43C407.638 55.5726 409.43 57.3541 409.43 59.5492V274.759C409.428 276.956 407.638 278.735 405.428 278.735Z" fill="#9DF8AB" />
    <path d="M24.4199 29.6355V279.511C24.4199 282.805 27.1059 285.476 30.4199 285.476H51.3199V45.7087C51.3199 38.8034 56.9499 33.2064 63.8959 33.2064H416.104C423.05 33.2064 428.68 38.8034 428.68 45.7087V285.476H449.582C452.896 285.476 455.582 282.805 455.582 279.511V29.6355C455.582 15.8269 444.322 4.63086 430.43 4.63086H49.5699C35.6799 4.63086 24.4199 15.8249 24.4199 29.6355V29.6355Z" fill="#29DA45" />
    <path d="M449.58 289.452H428.678C426.47 289.452 424.678 287.671 424.678 285.476V45.7087C424.678 41.0085 420.832 37.183 416.102 37.183H63.8959C59.1679 37.183 55.3199 41.0065 55.3199 45.7087V285.476C55.3199 287.671 53.5279 289.452 51.3199 289.452H30.4199C24.9059 289.452 20.4199 284.992 20.4199 279.511V29.6355C20.4199 13.6557 33.4979 0.654297 49.5699 0.654297H430.43C446.504 0.654297 459.58 13.6557 459.58 29.6355V279.511C459.58 284.992 455.094 289.452 449.58 289.452V289.452ZM432.678 281.499H449.58C450.682 281.499 451.58 280.606 451.58 279.511V29.6355C451.58 18.0398 442.092 8.60742 430.43 8.60742H49.5699C37.9079 8.60742 28.4199 18.0398 28.4199 29.6355V279.511C28.4199 280.606 29.3179 281.499 30.4199 281.499H47.3219V45.7087C47.3219 36.6223 54.7579 29.2299 63.8979 29.2299H416.106C425.246 29.2299 432.682 36.6223 432.682 45.7087V281.499H432.678Z" fill="#033E0C" />
    <path d="M107.29 331.272C132.296 331.272 152.568 311.12 152.568 286.26C152.568 261.4 132.296 241.248 107.29 241.248C82.2839 241.248 62.0125 261.4 62.0125 286.26C62.0125 311.12 82.2839 331.272 107.29 331.272Z" fill="#E0EBFC" />
    <path d="M62.0135 286.302L74.9005 276.993L69.7177 261.135C64.8529 268.312 62.0125 276.956 62.0125 286.26C62.0125 286.274 62.0135 286.288 62.0135 286.302Z" fill="#29DA45" />
    <path d="M92.4744 243.716L107.29 254.417L122.106 243.716C117.464 242.119 112.479 241.249 107.29 241.249C102.101 241.249 97.1168 242.119 92.4744 243.716Z" fill="#29DA45" />
    <path d="M87.6649 314.423L71.5249 313.863C76.6966 320.475 83.6814 325.618 91.7388 328.548L87.6649 314.423Z" fill="#29DA45" />
    <path d="M122.844 328.547C130.901 325.617 137.885 320.475 143.056 313.863L126.918 314.423L122.844 328.547Z" fill="#29DA45" />
    <path d="M139.589 276.994L152.566 286.367C152.567 286.367 152.567 286.367 152.567 286.366C152.588 276.983 149.721 268.266 144.801 261.046L139.589 276.994Z" fill="#29DA45" />
    <path d="M107.29 268.671L89.3481 281.631L96.2012 302.599H118.379L125.232 281.631L107.29 268.671Z" fill="#29DA45" />
    <path d="M118.379 304.6H96.2011C95.3298 304.6 94.5571 304.042 94.2874 303.218L87.4334 282.249C87.1637 281.425 87.4595 280.521 88.1649 280.012L106.108 267.053C106.813 266.544 107.768 266.544 108.474 267.053L126.417 280.012C127.123 280.521 127.418 281.425 127.149 282.249L120.295 303.218C120.023 304.042 119.25 304.6 118.379 304.6ZM97.6631 300.599H116.917L122.868 282.395L107.29 271.144L91.7136 282.395L97.6631 300.599Z" fill="#02310A" />
    <path d="M107.29 333.274C81.2141 333.274 60 312.184 60 286.261C60 260.338 81.2141 239.248 107.29 239.248C133.366 239.248 154.58 260.338 154.58 286.261C154.58 312.184 133.366 333.274 107.29 333.274ZM107.29 243.249C83.4337 243.249 64.0247 262.544 64.0247 286.261C64.0247 309.977 83.4337 329.273 107.29 329.273C131.146 329.273 150.555 309.977 150.555 286.261C150.555 262.544 131.146 243.249 107.29 243.249Z" fill="#02310A" />
    <path d="M152.324 288.194C151.914 288.194 151.5 288.069 151.143 287.811L138.406 278.612C137.701 278.103 137.406 277.199 137.674 276.375L142.745 260.865C143.089 259.814 144.226 259.24 145.281 259.581C146.338 259.922 146.916 261.05 146.573 262.101L141.955 276.23L153.509 284.576C154.408 285.225 154.606 286.476 153.953 287.369C153.56 287.908 152.946 288.194 152.324 288.194V288.194Z" fill="#02310A" />
    <path d="M125.232 283.631C124.384 283.631 123.595 283.094 123.318 282.249C122.975 281.197 123.554 280.069 124.61 279.727L138.967 275.09C140.027 274.751 141.16 275.323 141.504 276.374C141.848 277.425 141.268 278.554 140.212 278.896L125.855 283.533C125.648 283.599 125.438 283.631 125.232 283.631Z" fill="#02310A" />
    <path d="M122.92 330.289C122.736 330.289 122.55 330.264 122.364 330.211C121.296 329.907 120.678 328.799 120.985 327.736L124.984 313.87C125.225 313.037 125.978 312.453 126.849 312.422L142.597 311.876C143.705 311.861 144.64 312.701 144.679 313.805C144.717 314.91 143.849 315.836 142.738 315.875L128.451 316.371L124.855 328.84C124.6 329.717 123.795 330.289 122.92 330.289V330.289Z" fill="#02310A" />
    <path d="M126.92 316.422C126.294 316.422 125.677 316.132 125.283 315.589L116.744 303.767C116.095 302.869 116.302 301.619 117.205 300.975C118.105 300.331 119.364 300.535 120.013 301.433L128.553 313.255C129.202 314.153 128.994 315.403 128.092 316.047C127.737 316.3 127.327 316.422 126.92 316.422Z" fill="#02310A" />
    <path d="M87.6666 316.423C87.6425 316.423 87.6184 316.423 87.5952 316.422L86.9321 316.399C86.8899 316.398 86.1876 316.373 71.7309 315.872C70.6201 315.833 69.7518 314.907 69.79 313.802C69.8293 312.698 70.7529 311.817 71.8718 311.873C87.0831 312.4 87.0881 312.401 87.1062 312.401L87.7361 312.423C88.8469 312.462 89.7162 313.388 89.677 314.492C89.6377 315.573 88.7443 316.423 87.6666 316.423V316.423Z" fill="#02310A" />
    <path d="M91.5424 329.872C90.6671 329.872 89.8621 329.3 89.6096 328.423L85.7308 314.975C85.5607 314.387 85.6714 313.754 86.0296 313.257L94.566 301.434C95.2139 300.536 96.4716 300.331 97.3742 300.975C98.2767 301.619 98.484 302.87 97.836 303.767L89.8682 314.804L93.4783 327.32C93.7852 328.383 93.1674 329.49 92.0988 329.795C91.9127 329.846 91.7266 329.872 91.5424 329.872V329.872Z" fill="#02310A" />
    <path d="M62.3708 288.045C61.749 288.045 61.1352 287.759 60.7408 287.221C60.0878 286.327 60.287 285.076 61.1855 284.426L72.5341 276.23L67.9359 262.163C67.5928 261.112 68.1713 259.984 69.2278 259.642C70.2853 259.304 71.4203 259.875 71.7644 260.926L76.8143 276.375C77.084 277.199 76.7882 278.103 76.0829 278.612L63.552 287.662C63.1948 287.921 62.7813 288.045 62.3708 288.045V288.045Z" fill="#02310A" />
    <path d="M89.348 283.631C89.1427 283.631 88.9345 283.6 88.7292 283.534L74.2816 278.898C73.2241 278.559 72.6436 277.43 72.9847 276.379C73.3258 275.328 74.4617 274.751 75.5182 275.09L89.9658 279.726C91.0233 280.065 91.6038 281.193 91.2627 282.245C90.9871 283.092 90.1972 283.631 89.348 283.631Z" fill="#02310A" />
    <path d="M107.29 256.418C106.874 256.418 106.46 256.291 106.107 256.036L91.5344 245.51C90.6349 244.861 90.4367 243.609 91.0897 242.715C91.7437 241.821 93.0024 241.625 93.9009 242.273L107.29 251.944L120.648 242.296C121.547 241.648 122.806 241.845 123.459 242.738C124.112 243.632 123.913 244.884 123.014 245.533L108.472 256.036C108.12 256.291 107.706 256.418 107.29 256.418V256.418Z" fill="#02310A" />
    <path d="M107.29 270.672C106.179 270.672 105.278 269.776 105.278 268.671V254.417C105.278 253.313 106.179 252.417 107.29 252.417C108.401 252.417 109.303 253.313 109.303 254.417V268.671C109.303 269.777 108.401 270.672 107.29 270.672Z" fill="#02310A" />
</svg>